<svg xmlns="http://www.w3.org/2000/svg" xmlns:xlink="http://www.w3.org/1999/xlink" width="250" viewBox="0 0 846.8464 288.8981">
    <defs>
        <style>.cls-1{fill:url(#linear-gradient);}.cls-2{fill:#e6b541;}</style>
        <linearGradient id="linear-gradient" x1="6.8642" y1="426.4617" x2="279.8926" y2="426.4617" gradientTransform="matrix(1, 0, 0, -1, 0, 571.1233)" gradientUnits="userSpaceOnUse">
            <stop offset="0" stop-color="#fff" />
            <stop offset="0" stop-color="#a2751e" />
            <stop offset="0.25" stop-color="#c59a3c" />
            <stop offset="0.5" stop-color="#cfaa50" />
            <stop offset="0.75" stop-color="#c59a3c" />
            <stop offset="1" stop-color="#a2751e" />
        </linearGradient>
    </defs>
    <g id="Layer_2" data-name="Layer 2">
        <path class="cls-1" d="M236.1821,237.4666a133.1,133.1,0,0,1-15.5,13.29,159.4,159.4,0,0,1,39.72-159c.72-.73,1.46-1.43,2.2-2.14a130.26,130.26,0,0,1,10.66,36.09,125,125,0,0,0-26.08,99.29,133.2955,133.2955,0,0,1-11,12.47m-80.88,37.9a167.9908,167.9908,0,0,0,15.42-13.54,165.27,165.27,0,0,0,39.26-62.22,164.2284,164.2284,0,0,0,7.34,53.57,129.8995,129.8995,0,0,1-62,22.22m-16.44.43a130.7707,130.7707,0,0,1-47.16-10.45,127.65,127.65,0,0,0,65.89-190.83,164.2516,164.2516,0,0,0,6.11-41.26l.48.47a156.65,156.65,0,0,1,0,221.51,158.003,158.003,0,0,1-25.32,20.56m-59.42-16.49a132.999,132.999,0,0,1-38.12-32.14,84.6061,84.6061,0,0,0,12.1.88,83.51,83.51,0,0,0,80.92-104.44,161.855,161.855,0,0,0,19.51-37.48,118.3,118.3,0,0,1-74.41,173.18m-58.57-67.42a162.4092,162.4092,0,0,0,95.14-46.44q5.81-5.82,10.92-12.06a74.32,74.32,0,0,1-93.71,82.65,129.7215,129.7215,0,0,1-12.35-24.15m-8.39-37.69a125,125,0,0,0,93.88-61.94,74,74,0,0,1,19.6,36,158.91,158.91,0,0,1-106.49,59.82,131.0724,131.0724,0,0,1-7-33.88m-.34-9.56a131.5211,131.5211,0,0,1,4.8-35.36,80.67,80.67,0,0,0,52.88-37.29,73.7189,73.7189,0,0,1,33.59,17.44,120.75,120.75,0,0,1-91.15,60.78c-.07-1.85-.12-3.71-.12-5.57m21.31-71.75a73.8517,73.8517,0,0,1,32.22-1.71,77.6211,77.6211,0,0,1-10.63,13.31,76.47,76.47,0,0,1-36.81,20.46,129.4793,129.4793,0,0,1,15.22-32.06m17.13-21a131.9994,131.9994,0,0,1,26.93-20.77,77.199,77.199,0,0,1-7.17,31.59,84,84,0,0,0-28.77-.85,131.9862,131.9862,0,0,1,9-10m30.93-21.73a116.883,116.883,0,0,1,36.29,16.67,121.1216,121.1216,0,0,1-10,34.15,83.0011,83.0011,0,0,0-33.5-17.43,81.1017,81.1017,0,0,0,7.24-33.45m36.56-14.27a121.0048,121.0048,0,0,1,.69,20.58,125.8143,125.8143,0,0,0-26.61-12.66,130.8,130.8,0,0,1,25.92-7.92m16.44,45a119.4068,119.4068,0,0,1,16.69,21,157.7716,157.7716,0,0,1-18.3,37,83.0009,83.0009,0,0,0-20.37-33.32c-.56-.56-1.14-1.09-1.72-1.63a124.54,124.54,0,0,0,10.56-34.35,119.5133,119.5133,0,0,1,13.14,11.3m4.77-47.29a156.6631,156.6631,0,0,1,20.49,16,160.2981,160.2981,0,0,1-5.13,40.73,129.27,129.27,0,0,0-32.09-31.34,125.7824,125.7824,0,0,0-.6-23.76,132.7709,132.7709,0,0,1,17.33-1.67m19.69.85c.08.8.17,1.61.24,2.42-1.14-1-2.32-1.85-3.48-2.77,1.08.1,2.16.22,3.24.35m77.18,37.48a131.4724,131.4724,0,0,1,24.62,34q-1.62,1.51-3.2,3.09a162.17,162.17,0,0,0-38.42,61c.06-1.8.1-3.6.1-5.4a164.79,164.79,0,0,0-48.56-117.29q-3.54-3.54-7.26-6.83-.16-2.76-.42-5.52a130.29,130.29,0,0,1,73.14,36.95m14.3,168.69a121.09,121.09,0,0,1,23.46-89.23c.44,4.4.68,8.85.68,13.34a130.28,130.28,0,0,1-24.14,75.89m1.19,7.25h0a135.4593,135.4593,0,0,0,28.22-83.14,138.117,138.117,0,0,0-2.05-23.8v-.31h0a134.9994,134.9994,0,0,0-11.16-34.69h0c-.58-1.23-1.19-2.44-1.81-3.65h0a137,137,0,0,0-102.42-72.71h0c-1.34-.19-2.7-.35-4.06-.5h0c-3.43-.37-6.89-.62-10.37-.73h0c-1.53,0-3.07-.09-4.61-.09h0c-1.94,0-3.87,0-5.79.13h-.27c-2,.09-3.9.22-5.84.38h0a135.41,135.41,0,0,0-50,14.26l-.12.06c-1,.51-2,1-3,1.58h-.05A136.66,136.66,0,0,0,23.451,209.8642q1.8183,3.3487,3.8211,6.5924v.05c.61,1,1.23,2,1.87,2.92l.15.24c.6.9,1.21,1.8,1.83,2.69l.24.36a138.41,138.41,0,0,0,43.45,40h0c1,.58,2,1.15,3,1.7h0c1,.55,2,1.08,3,1.61h.05a135.5005,135.5005,0,0,0,56.32,15.01h.15q3,.13,6.09.14h0c1.4,0,2.79,0,4.17-.07h0a135.35,135.35,0,0,0,71.46-22.75h0c1.13-.75,2.25-1.53,3.36-2.32h0a138.0056,138.0056,0,0,0,17.52-14.84c3-3,5.89-6.17,8.59-9.41h0c1.09-1.3,2.14-2.62,3.17-4h0" />
    </g>
    <g id="Layer_1" data-name="Layer 1">
        <path class="cls-2" d="M335.4433,140.9083a40.7118,40.7118,0,0,1,0-72.1147,50.8328,50.8328,0,0,1,45.3847,0,40.7118,40.7118,0,0,1,0,72.1147,50.8371,50.8371,0,0,1-45.3847,0Zm33.6118-16.1518a20.4526,20.4526,0,0,0,7.7348-8.0191,26.2633,26.2633,0,0,0,0-23.7729,20.4752,20.4752,0,0,0-7.7348-8.0191,22.3865,22.3865,0,0,0-21.8389,0,20.4522,20.4522,0,0,0-7.7349,8.0191,26.2641,26.2641,0,0,0,0,23.7729,20.43,20.43,0,0,0,7.7349,8.0191,22.39,22.39,0,0,0,21.8389,0ZM362.23,41.2672h21.6118L362.4579,58.5563H346.9887Z" />
        <path class="cls-2" d="M494.6312,65.04l-34.124,79.6215H438.3266L404.3163,65.04h24.3423L450.27,116.9078,472.3373,65.04Z" />
        <path class="cls-2" d="M552.3,129.1925h-33.669l-6.2558,15.4692H489.3988L524.5463,65.04h22.1806l35.2608,79.6215H558.556ZM539.7885,41.2672H561.4L540.016,58.5563h-15.47Zm5.915,71.3184-10.2373-25.479-10.2373,25.479Z" />
        <path class="cls-2" d="M625.5521,123.505H613.267v21.1567H590.7455V65.04h36.3984a45.4183,45.4183,0,0,1,18.7686,3.583,28.961,28.961,0,0,1,12.5683,40.9482,27.3053,27.3053,0,0,1-11.5449,10.0664l17.1758,25.0239H639.9975Zm10.6914-37.6494q-3.5258-3.0711-10.4638-3.0713H613.267v23.3179H625.78q6.936,0,10.4638-3.0142,3.5245-3.0124,3.5264-8.5879Q639.77,88.9286,636.2435,85.8556Z" />
        <path class="cls-2" d="M694.765,140.9083a40.7119,40.7119,0,0,1,0-72.1147,50.833,50.833,0,0,1,45.3848,0,40.7119,40.7119,0,0,1,0,72.1147,50.8373,50.8373,0,0,1-45.3848,0Zm33.6123-16.1518a20.4578,20.4578,0,0,0,7.7344-8.0191,26.2633,26.2633,0,0,0,0-23.7729,20.48,20.48,0,0,0-7.7344-8.0191,22.3882,22.3882,0,0,0-21.84,0,20.453,20.453,0,0,0-7.7344,8.0191,26.2641,26.2641,0,0,0,0,23.7729,20.43,20.43,0,0,0,7.7344,8.0191,22.3917,22.3917,0,0,0,21.84,0Z" />
        <path class="cls-2" d="M785.1351,143.8654a46.1194,46.1194,0,0,1-14.7871-6.37l7.3936-16.6069a47.74,47.74,0,0,0,12.3984,5.6875,47.17,47.17,0,0,0,13.877,2.1611q12.9668,0,12.9668-6.4834,0-3.4124-3.6973-5.062a68.1507,68.1507,0,0,0-11.8857-3.4692,113.2913,113.2913,0,0,1-15.0147-4.1514,25.25,25.25,0,0,1-10.3506-7.1094q-4.3242-4.8888-4.3222-13.1943a22.839,22.839,0,0,1,3.98-13.1377,26.6369,26.6369,0,0,1,11.8868-9.27q7.9043-3.4124,19.3935-3.4126a68.4552,68.4552,0,0,1,15.47,1.7632,47.4281,47.4281,0,0,1,13.4219,5.1753l-6.9385,16.7207q-11.3759-6.1422-22.0664-6.1421-6.7134,0-9.7822,1.99a5.97,5.97,0,0,0-3.0713,5.1758q0,3.1853,3.64,4.7773a65.6748,65.6748,0,0,0,11.7158,3.2984,109.9648,109.9648,0,0,1,15.0713,4.1518,26.0316,26.0316,0,0,1,10.3506,7.0523q4.3783,4.8354,4.3789,13.1377a22.4011,22.4011,0,0,1-3.9805,12.9668q-3.983,5.8008-11.9434,9.27-7.9629,3.4688-19.3369,3.4692A73.5861,73.5861,0,0,1,785.1351,143.8654Z" />
        <path class="cls-2" d="M343.9476,206.5861h-9.5039v16.3681H317.02v-61.6h28.16a35.14,35.14,0,0,1,14.52,2.772,22.4062,22.4062,0,0,1,9.7241,31.68,21.1281,21.1281,0,0,1-8.9321,7.7881l13.2881,19.36H355.1239Zm8.272-29.128q-2.7282-2.376-8.0957-2.3759h-9.68v18.04h9.68q5.3666,0,8.0957-2.332a8.2626,8.2626,0,0,0,2.728-6.6441A8.4,8.4,0,0,0,352.22,177.4581Z" />
        <path class="cls-2" d="M430.891,209.49v13.4638H381.435v-61.6h48.3115V174.818H398.683v10.3843h27.3682v13.0239H398.683V209.49Z" />
        <path class="cls-2" d="M446.9945,222.338a35.6873,35.6873,0,0,1-11.44-4.9277l5.7207-12.8482a36.9264,36.9264,0,0,0,9.5918,4.4,36.49,36.49,0,0,0,10.7363,1.6724q10.0313,0,10.0313-5.0161,0-2.64-2.8594-3.916a52.7488,52.7488,0,0,0-9.1963-2.6841,87.7392,87.7392,0,0,1-11.6162-3.2119,19.5371,19.5371,0,0,1-8.0078-5.5q-3.3458-3.783-3.3438-10.208a17.6665,17.6665,0,0,1,3.08-10.1641,20.6013,20.6013,0,0,1,9.1953-7.1719,37.8453,37.8453,0,0,1,15.0039-2.64,52.9428,52.9428,0,0,1,11.9688,1.3643,36.6762,36.6762,0,0,1,10.3838,4.0039l-5.3682,12.936a35.8665,35.8665,0,0,0-17.0723-4.752q-5.1929,0-7.5673,1.54a4.6187,4.6187,0,0,0-2.376,4.0044q0,2.4647,2.8154,3.6958a50.8352,50.8352,0,0,0,9.0645,2.5522,85.0705,85.0705,0,0,1,11.66,3.2119,20.1433,20.1433,0,0,1,8.0078,5.4561q3.3867,3.7412,3.3877,10.1641a17.3307,17.3307,0,0,1-3.08,10.0317,20.9917,20.9917,0,0,1-9.24,7.1719,37.3794,37.3794,0,0,1-14.96,2.6841A56.9246,56.9246,0,0,1,446.9945,222.338Z" />
        <path class="cls-2" d="M496.098,161.3541h17.4239v61.6H496.098Z" />
        <path class="cls-2" d="M525.225,161.3541h29.1279a40.7909,40.7909,0,0,1,17.9522,3.7842,28.5147,28.5147,0,0,1,12.1435,10.7358,32.8855,32.8855,0,0,1,0,32.56A28.4939,28.4939,0,0,1,572.3051,219.17a40.77,40.77,0,0,1-17.9522,3.7842H525.225ZM553.6488,209.05q7.92,0,12.7158-4.4883t4.7959-12.4077q0-7.92-4.7959-12.4082t-12.7158-4.4878h-11V209.05Z" />
        <path class="cls-2" d="M646.6635,209.49v13.4638H597.2074v-61.6h48.3115V174.818H614.4555v10.3843h27.3681v13.0239H614.4555V209.49Z" />
        <path class="cls-2" d="M714.2465,161.3541v61.6H699.9027L672.7113,190.13v32.8242H655.6391v-61.6h14.3437l27.1924,32.8242V161.3541Z" />
        <path class="cls-2" d="M739.1957,220.0944a30.5885,30.5885,0,0,1-12.1006-11.396,33.3074,33.3074,0,0,1,0-33.0884,30.5976,30.5976,0,0,1,12.1006-11.396,36.4568,36.4568,0,0,1,17.38-4.0918,37.3124,37.3124,0,0,1,15.2236,2.9922,29.3045,29.3045,0,0,1,11.2647,8.624L771.976,181.77q-5.9855-7.2143-14.52-7.2158a17.93,17.93,0,0,0-8.9317,2.2,15.2671,15.2671,0,0,0-6.0722,6.2041,20.6875,20.6875,0,0,0,0,18.3921,15.2489,15.2489,0,0,0,6.0722,6.2041,17.9145,17.9145,0,0,0,8.9317,2.2q8.5341,0,14.52-7.2158L783.0639,212.57a29.2863,29.2863,0,0,1-11.2647,8.6241,37.3221,37.3221,0,0,1-15.2236,2.9917A36.451,36.451,0,0,1,739.1957,220.0944Z" />
        <path class="cls-2" d="M839.559,209.49v13.4638H790.1029v-61.6h48.3115V174.818H807.351v10.3843h27.3681v13.0239H807.351V209.49Z" />
    </g>
</svg>
